<?xml version='1.0' encoding='UTF-8'?>
<svg x="0px" y="0px" viewBox="0 0 32 32" version="1.1" xmlns="http://www.w3.org/2000/svg" xmlns:xlink="http://www.w3.org/1999/xlink" enable-background="new 0 0 32 32" xml:space="preserve" id="Layer_1">
  <style type="text/css">
	.Black{fill:#727272;}
	.Blue{fill:#1177D7;}
	.Green{fill:#039C23;}
	.Yellow{fill:#FFB115;}
	.Red{fill:#D11C1C;}
	.White{fill:#FFFFFF;}
	.st0{opacity:0.5;}
	.st1{opacity:0.75;}
</style>
  <g id="MergeCells">
    <g opacity="0.5" class="st0">
      <path d="M22,0h8v6h-8V0z M12,0v6h8V0H12z M10,6V0H2v6H10z M20,22v-6h-8v6H20z M30,22v-6h-8v6H30z M10,22v-6H2v6H10z     M30,30v-6h-8v6H30z M20,30v-6h-8v6H20z M10,30v-6H2v6H10z" fill="#727272" opacity="0.5" class="Black" />
    </g>
    <path d="M30,14H2V8h28V14z" fill="#039C23" class="Green" />
  </g>
</svg>