<?xml version='1.0' encoding='UTF-8'?>
<svg x="0px" y="0px" viewBox="0 0 32 32" version="1.1" xmlns="http://www.w3.org/2000/svg" xmlns:xlink="http://www.w3.org/1999/xlink" enable-background="new 0 0 32 32" xml:space="preserve" id="Show_All_Subtotals_At_Top_Pivot_Table">
  <style type="text/css">
	.Black{fill:#727272;}
	.Blue{fill:#1177D7;}
	.st0{opacity:0.75;}
</style>
  <path d="M27,2H5C4.4,2,4,2.4,4,3v26c0,0.6,0.4,1,1,1h22c0.6,0,1-0.4,1-1V3C28,2.4,27.6,2,27,2z M26,28H6V4h20V28z" fill="#727272" class="Black" />
  <path d="M18,10H8V8h10V10z M24,8h-4v2h4V8z M18,18H8v2h10V18z M24,18h-4v2h4V18z" fill="#1177D7" class="Blue" />
  <g opacity="0.75" class="st0">
    <path d="M18,14h-8v-2h8V14z M24,12h-4v2h4V12z M18,22h-8v2h8V22z M24,22h-4v2h4V22z" fill="#727272" opacity="0.75" class="Black" />
  </g>
</svg>